<?xml version="1.0" encoding="UTF-8" standalone="no"?>
<svg
   width="20"
   height="18"
   viewBox="0 0 20 18"
   fill="none"
   version="1.1"
   id="svg1"
   sodipodi:docname="4.svg"
   inkscape:version="1.4.2 (f4327f4, 2025-05-13)"
   xmlns:inkscape="http://www.inkscape.org/namespaces/inkscape"
   xmlns:sodipodi="http://sodipodi.sourceforge.net/DTD/sodipodi-0.dtd"
   xmlns="http://www.w3.org/2000/svg"
   xmlns:svg="http://www.w3.org/2000/svg">
  <defs
     id="defs1" />
  <sodipodi:namedview
     id="namedview1"
     pagecolor="#ffffff"
     bordercolor="#000000"
     borderopacity="0.25"
     inkscape:showpageshadow="2"
     inkscape:pageopacity="0.0"
     inkscape:pagecheckerboard="0"
     inkscape:deskcolor="#d1d1d1"
     inkscape:zoom="22.638889"
     inkscape:cx="8.1276074"
     inkscape:cy="11.771779"
     inkscape:window-width="1920"
     inkscape:window-height="1017"
     inkscape:window-x="-8"
     inkscape:window-y="-8"
     inkscape:window-maximized="1"
     inkscape:current-layer="layer1" />
  <g
     inkscape:groupmode="layer"
     id="layer1"
     inkscape:label="Layer 1">
    <path
       d="M 6,18 V 16 H 2 C 1.45,16 0.979167,15.8042 0.5875,15.4125 0.195833,15.0208 0,14.55 0,14 V 2 C 0,1.45 0.195833,0.979167 0.5875,0.5875 0.979167,0.195833 1.45,0 2,0 h 16 c 0.55,0 1.0208,0.195833 1.4125,0.5875 C 19.8042,0.979167 20,1.45 20,2 v 12 c 0,0.55 -0.1958,1.0208 -0.5875,1.4125 C 19.0208,15.8042 18.55,16 18,16 h -4 v 2 z M 2,14 H 18 V 2 H 2 Z m 0,0 V 2 Z"
       fill="#566166"
       id="path1"
       sodipodi:nodetypes="ccssssssssssssccccccccccc"
       style="fill-rule:nonzero;fill:#55008f;fill-opacity:1"
       inkscape:label="xd" />
    <path
       id="path2"
       style="fill:#55008f;fill-opacity:1;stroke-width:1.00157"
       d="M 18.208984,1.8125 1.6778015,1.6023797 1.9355469,14.085938 H 18.240234 Z M 7.625,3.6269531 l 7,4.5 -7,4.4999999 z"
       sodipodi:nodetypes="ccccccccc" />
  </g>
</svg>
