<?xml version="1.0" standalone="no"?>
<!DOCTYPE svg PUBLIC "-//W3C//DTD SVG 20010904//EN"
 "http://www.w3.org/TR/2001/REC-SVG-20010904/DTD/svg10.dtd">
<svg version="1.0" xmlns="http://www.w3.org/2000/svg"
 width="500.000000pt" height="500.000000pt" viewBox="0 0 500.000000 500.000000"
 preserveAspectRatio="xMidYMid meet">

<g transform="translate(0.000000,500.000000) scale(0.100000,-0.100000)"
fill="#000000" stroke="none">
<path d="M4257 2863 c-4 -3 -7 -132 -7 -285 l0 -278 35 0 35 0 0 118 c0 131
17 186 64 218 32 20 95 23 129 5 42 -22 51 -56 55 -203 l4 -138 35 0 35 0 -4
148 c-3 124 -7 154 -24 187 -29 55 -64 77 -127 83 -60 5 -103 -12 -143 -55
l-24 -26 0 117 0 116 -28 0 c-16 0 -32 -3 -35 -7z"/>
<path d="M769 2843 c-55 -34 -74 -105 -44 -163 33 -64 127 -80 184 -32 61 51
51 161 -19 197 -38 19 -88 19 -121 -2z"/>
<path d="M1238 2841 c-32 -26 -288 -460 -288 -490 0 -66 54 -121 120 -121 63
0 79 19 218 254 137 234 148 261 118 314 -32 58 -120 80 -168 43z"/>
<path d="M1708 2847 c-94 -27 -174 -108 -199 -201 -33 -122 31 -265 144 -322
154 -78 336 -10 382 144 6 20 3 22 -29 22 -30 0 -37 -5 -52 -36 -9 -19 -33
-47 -52 -62 -32 -24 -44 -27 -117 -27 -73 0 -86 3 -122 28 -137 95 -115 317
39 381 91 38 199 7 244 -70 23 -39 30 -44 61 -44 31 0 34 2 27 23 -20 64 -76
126 -140 153 -49 21 -133 25 -186 11z"/>
<path d="M2490 2815 l0 -35 85 0 85 0 0 -240 0 -240 35 0 35 0 0 240 0 240 85
0 85 0 0 35 0 35 -205 0 -205 0 0 -35z"/>
<path d="M2185 2701 c-115 -53 -158 -186 -97 -302 22 -43 38 -59 81 -81 146
-76 311 23 311 187 0 155 -158 259 -295 196z m158 -68 c89 -45 90 -201 1 -259
-34 -23 -115 -22 -149 0 -41 27 -65 75 -65 129 0 77 28 118 97 142 40 14 70
11 116 -12z"/>
<path d="M3019 2692 c-177 -92 -127 -375 70 -399 78 -9 153 24 193 85 25 37
23 42 -16 42 -25 0 -43 -8 -63 -28 -38 -39 -93 -49 -141 -25 -39 19 -82 74
-82 104 0 18 11 19 170 19 193 0 182 -6 155 86 -24 83 -107 144 -194 144 -23
0 -60 -11 -92 -28z m131 -42 c24 0 86 -53 93 -80 5 -19 0 -20 -128 -20 -126 0
-133 1 -128 19 11 43 94 97 131 85 8 -2 22 -4 32 -4z"/>
<path d="M3440 2698 c-26 -14 -57 -41 -75 -66 -27 -40 -30 -51 -30 -127 0 -76
3 -87 30 -127 74 -106 232 -117 304 -21 l20 28 1 -42 c0 -41 1 -43 30 -43 l30
0 0 205 0 205 -30 0 c-29 0 -30 -2 -30 -42 l0 -43 -25 31 c-49 63 -148 81
-225 42z m173 -65 c41 -21 67 -70 67 -126 0 -91 -56 -151 -141 -151 -83 0
-139 59 -139 147 0 77 28 118 97 142 40 14 70 11 116 -12z"/>
<path d="M3947 2710 c-158 -48 -188 -286 -48 -385 38 -27 51 -30 115 -30 64 0
78 4 114 28 22 16 50 48 61 70 l21 42 -31 3 c-26 3 -37 -3 -61 -32 -98 -119
-273 -17 -238 138 24 108 165 147 234 66 19 -23 33 -30 61 -30 l36 0 -22 39
c-46 82 -146 120 -242 91z"/>
</g>
</svg>
